<svg width="58" height="68" viewBox="0 0 58 68" fill="none" xmlns="http://www.w3.org/2000/svg">
<g clip-path="url(#clip0_39_18458)">
<path fill-rule="evenodd" clip-rule="evenodd" d="M53.98 44.1682C53.98 31.0111 43.0395 20.3364 29.5547 20.3364C16.0597 20.3364 5.12932 31.0111 5.12932 44.1682C5.12932 57.3254 16.0597 68 29.5547 68C43.0497 68 53.98 57.3254 53.98 44.1682ZM47.721 44.1682C47.721 53.9591 39.5894 61.8931 29.5547 61.8931C19.5199 61.8931 11.3883 53.9591 11.3883 44.1682C11.3883 34.3773 19.5199 26.4433 29.5547 26.4433C39.5894 26.4433 47.721 34.3773 47.721 44.1682ZM43.7722 6.33528L29.5547 0L15.3371 6.33528L1.10932 12.6805V19.5619C0.468152 19.7307 0 20.3067 0 20.9819C0 21.6373 0.427443 22.1834 1.0279 22.382L0.987191 22.521L0.457975 24.2985H1.52658H2.59519L2.0558 22.521L2.01509 22.382C2.61555 22.1834 3.04299 21.6273 3.04299 20.9819C3.04299 20.2967 2.57484 19.7307 1.93367 19.552V13.038L12.976 17.9632V21.7564C17.6677 18.4498 23.4178 16.5234 29.5648 16.5234C35.7119 16.5234 41.462 18.4498 46.1537 21.7564V17.9632L58.0102 12.6805L43.7722 6.33528Z" fill="#395FE3"/>
</g>
<defs>
<clipPath id="clip0_39_18458">
<rect width="58" height="68" fill="white"/>
</clipPath>
</defs>
</svg>
